<svg aria-hidden="true" style="position: absolute; width: 0; height: 0; overflow: hidden;" version="1.1" xmlns="http://www.w3.org/2000/svg" xmlns:xlink="http://www.w3.org/1999/xlink">
<defs>
<symbol id="envelope" viewBox="0 0 43 32">
<path  d="M38.667 0h-34.667c-2.205 0-4 1.795-4 4v24c0 2.205 1.795 4 4 4h34.667c2.205 0 4-1.795 4-4v-24c0-2.205-1.795-4-4-4zM38.667 2.667c0.181 0 0.355 0.037 0.512 0.104l-17.845 15.467-17.845-15.467c0.151-0.065 0.327-0.104 0.512-0.104h34.667zM38.667 29.333h-34.667c-0.736 0-1.333-0.597-1.333-1.333v0-22.413l17.792 15.421c0.233 0.203 0.539 0.327 0.875 0.327s0.642-0.124 0.876-0.328l-0.002 0.001 17.792-15.421v22.413c0 0.736-0.597 1.333-1.333 1.333v0z"></path>
</symbol>
<symbol id="instagram" viewBox="0 0 32 32">
<path  d="M31.968 9.408c-0.074-1.701-0.349-2.869-0.742-3.882-0.424-1.111-1.054-2.059-1.85-2.837l-0.001-0.001c-0.78-0.792-1.724-1.419-2.778-1.827l-0.054-0.018c-1.019-0.394-2.181-0.667-3.882-0.742-1.712-0.082-2.256-0.101-6.602-0.101-4.344 0-4.888 0.019-6.595 0.094-1.699 0.074-2.869 0.349-3.88 0.742-1.112 0.424-2.060 1.054-2.839 1.85l-0.001 0.001c-0.791 0.78-1.418 1.724-1.825 2.778l-0.018 0.054c-0.395 1.019-0.669 2.181-0.744 3.882-0.082 1.712-0.101 2.256-0.101 6.602 0 4.344 0.019 4.888 0.094 6.595 0.075 1.701 0.35 2.869 0.744 3.882 0.426 1.11 1.055 2.057 1.849 2.837l0.001 0.001c0.8 0.813 1.77 1.443 2.832 1.843 1.019 0.395 2.182 0.67 3.882 0.744 1.707 0.075 2.251 0.094 6.595 0.094 4.346 0 4.89-0.019 6.595-0.094 1.701-0.074 2.869-0.349 3.882-0.742 2.157-0.85 3.833-2.526 4.664-4.628l0.019-0.055c0.394-1.019 0.669-2.182 0.744-3.882 0.075-1.707 0.093-2.251 0.093-6.595s-0.006-4.888-0.080-6.595zM29.088 22.474c-0.070 1.563-0.333 2.406-0.55 2.97-0.552 1.399-1.64 2.486-3.004 3.024l-0.036 0.012c-0.56 0.219-1.411 0.482-2.968 0.55-1.688 0.075-2.194 0.094-6.464 0.094-4.269 0-4.782-0.019-6.464-0.094-1.563-0.069-2.406-0.331-2.97-0.55-0.721-0.269-1.334-0.676-1.836-1.192l-0.001-0.001c-0.517-0.503-0.924-1.117-1.184-1.803l-0.011-0.034c-0.218-0.563-0.48-1.413-0.549-2.97-0.075-1.688-0.094-2.195-0.094-6.464 0-4.27 0.019-4.784 0.094-6.464 0.069-1.563 0.331-2.406 0.549-2.97 0.269-0.722 0.678-1.337 1.198-1.837l0.002-0.002c0.504-0.517 1.119-0.923 1.806-1.182l0.034-0.011c0.56-0.219 1.411-0.48 2.968-0.55 1.688-0.074 2.195-0.093 6.464-0.093 4.275 0 4.782 0.019 6.464 0.093 1.563 0.069 2.406 0.331 2.97 0.55 0.693 0.256 1.325 0.662 1.837 1.194 0.531 0.52 0.938 1.144 1.195 1.84 0.218 0.56 0.48 1.411 0.549 2.968 0.075 1.688 0.094 2.194 0.094 6.464 0 4.269-0.019 4.768-0.094 6.458z"></path>
<path  d="M16.059 7.782c-4.539 0.002-8.218 3.682-8.219 8.221v0c0.091 4.471 3.737 8.060 8.221 8.060s8.13-3.589 8.221-8.052l0-0.009c-0.001-4.54-3.681-8.22-8.221-8.221h-0zM16.059 21.334c-2.945-0-5.332-2.388-5.332-5.333s2.388-5.333 5.333-5.333c0 0 0.001 0 0.001 0h-0c2.946 0 5.334 2.388 5.334 5.334s-2.388 5.334-5.334 5.334v0zM26.525 7.458c0 1.060-0.86 1.92-1.92 1.92s-1.92-0.86-1.92-1.92v0c0-1.060 0.86-1.92 1.92-1.92s1.92 0.86 1.92 1.92v0z"></path>
</symbol>
<symbol id="phone" viewBox="0 0 32 32">
<path d="M22 20c-2 2-2 4-4 4s-4-2-6-4-4-4-4-6 2-2 4-4-4-8-6-8-6 6-6 6c0 4 4.109 12.109 8 16s12 8 16 8c0 0 6-4 6-6s-6-8-8-6z"></path>
</symbol>
<symbol id="logo" viewBox="0 0 32 32">
<path d="M5.067 9.23c-2.265 0.331-4.011 1.959-4.469 4.167-0.103 0.501-0.114 1.451-0.018 1.963 0.196 1.045 0.697 1.988 1.465 2.756 0.892 0.896 1.995 1.404 3.278 1.515 0.91 0.078 1.977-0.139 2.802-0.565 0.373-0.196 0.935-0.608 1.248-0.914 0.306-0.302 0.7-0.793 0.818-1.024 0.103-0.199 0.028-0.128-0.153 0.146-0.469 0.711-1.134 1.312-1.902 1.728-1.060 0.576-2.521 0.75-3.531 0.423-1.66-0.537-2.898-2.222-3.15-4.288-0.053-0.434-0.025-1.429 0.053-1.806 0.249-1.234 0.747-2.19 1.529-2.94 0.555-0.526 1.106-0.846 1.781-1.028 0.309-0.082 0.427-0.092 0.889-0.096 0.469 0 0.58 0.011 0.907 0.096 0.715 0.185 1.298 0.533 1.867 1.106 0.548 0.551 0.871 1.063 1.177 1.852l0.149 0.391 0.416 0.007 0.416 0.004-0.021-0.1c-0.032-0.174-0.32-0.75-0.53-1.067-0.768-1.159-1.941-1.952-3.332-2.258-0.26-0.057-1.44-0.103-1.689-0.068z"></path>
<path d="M11.851 9.234l0.167 0.014v10.343h-0.139c-0.078 0-0.153 0.014-0.164 0.036-0.014 0.025 1.038 0.036 3.125 0.036 2.076 0 3.15-0.011 3.15-0.036 0-0.021-0.142-0.036-0.356-0.036-0.249 0-0.356-0.014-0.356-0.043 0-0.021 0.039-0.21 0.089-0.416 0.046-0.206 0.167-0.747 0.267-1.195 0.1-0.452 0.228-1.031 0.288-1.291l0.11-0.469 1.387 0.007 1.387 0.011 0.1 0.32c0.146 0.462 0.38 1.23 0.676 2.187 0.142 0.459 0.274 0.864 0.292 0.896 0.028 0.057 0.096 0.064 0.615 0.064 0.366 0 0.587-0.014 0.587-0.036s-0.068-0.036-0.153-0.036h-0.153l-0.078-0.277c-0.046-0.149-0.135-0.441-0.203-0.647-0.064-0.206-0.395-1.269-0.729-2.364-0.338-1.095-0.711-2.311-0.832-2.702s-0.476-1.54-0.789-2.549l-0.565-1.842h-0.452c-0.252 0-0.455 0.011-0.455 0.025 0 0.018 0.114 0.388 0.249 0.825l0.245 0.793-0.764 3.438c-0.423 1.888-0.796 3.577-0.836 3.755-0.039 0.174-0.117 0.42-0.174 0.54-0.135 0.292-0.448 0.597-0.786 0.768-0.469 0.235-0.519 0.242-2.187 0.231l-1.49-0.011-0.011-5.184-0.007-5.18-0.615 0.007c-0.334 0.004-0.537 0.011-0.441 0.018zM19.264 11.172c0.021 0.085 0.121 0.416 0.22 0.74 0.103 0.324 0.384 1.234 0.626 2.027 0.245 0.793 0.491 1.589 0.548 1.771 0.060 0.181 0.107 0.352 0.107 0.38 0 0.046-0.178 0.053-1.351 0.053-1.284 0-1.351-0.004-1.351-0.064s0.171-0.864 0.316-1.483c0.036-0.156 0.231-1.031 0.434-1.945 0.203-0.91 0.377-1.653 0.391-1.643 0.014 0.007 0.039 0.082 0.060 0.164z"></path>
<path d="M24.284 9.241l0.16 0.021v10.311l-0.149 0.011c-0.085 0.007-0.153 0.025-0.153 0.046 0 0.018 0.377 0.032 0.942 0.032 0.519 0 0.942-0.011 0.942-0.028 0-0.014-0.096-0.046-0.217-0.068-0.619-0.117-1.145-0.64-1.276-1.269-0.025-0.121-0.032-1.625-0.028-4.565l0.011-4.388 1.188 2.165c0.654 1.188 1.358 2.464 1.561 2.837 0.206 0.37 0.562 1.020 0.793 1.44s0.804 1.461 1.269 2.311l0.853 1.547 0.896 0.021v-10.418l0.171-0.014c0.092-0.007-0.263-0.014-0.793-0.014l-0.96-0.004 0.231 0.060c0.672 0.171 1.148 0.644 1.28 1.269 0.025 0.117 0.032 1.628 0.028 4.562l-0.011 4.391-0.85-1.547c-0.469-0.846-0.974-1.767-1.127-2.041-0.256-0.466-0.761-1.383-1.973-3.591-0.277-0.508-0.683-1.244-0.9-1.636s-0.487-0.882-0.597-1.092l-0.206-0.384-0.622 0.007c-0.341 0-0.551 0.014-0.462 0.025z"></path>
<path d="M16.988 22.692c-0.053 0.039-0.057 0.142-0.053 0.846 0.007 0.775 0.011 0.8 0.078 0.8s0.071-0.028 0.082-0.814c0.004-0.448-0.004-0.828-0.021-0.846-0.014-0.014-0.053-0.007-0.085 0.014z"></path>
<path d="M18.606 22.674c-0.036 0.011-0.046 0.217-0.046 0.85 0 0.807 0.004 0.832 0.071 0.832s0.071-0.025 0.071-0.853c0-0.469-0.011-0.853-0.025-0.85-0.018 0-0.050 0.011-0.071 0.021z"></path>
<path d="M7.836 22.901c-0.011 0.021-0.007 0.053 0.014 0.075 0.046 0.046 0.114 0.007 0.114-0.064 0-0.057-0.092-0.068-0.128-0.011z"></path>
<path d="M7.868 23.243c-0.036 0.011-0.046 0.181-0.046 0.679 0 0.612-0.007 0.676-0.075 0.786l-0.075 0.124 0.085-0.053c0.178-0.117 0.206-0.245 0.206-0.932 0-0.345-0.011-0.629-0.025-0.626-0.018 0-0.050 0.011-0.071 0.021z"></path>
<path d="M11.819 23.278c0.011 0.036 0.085 0.281 0.167 0.544s0.16 0.494 0.178 0.512c0.014 0.018 0.050 0.021 0.078 0.011 0.046-0.018 0.025-0.114-0.117-0.565-0.146-0.469-0.181-0.544-0.249-0.555-0.060-0.011-0.075 0-0.057 0.053z"></path>
<path d="M12.302 23.264c0 0.021 0.068 0.267 0.153 0.537 0.139 0.448 0.228 0.612 0.292 0.548 0.011-0.011-0.046-0.235-0.128-0.494-0.082-0.263-0.156-0.512-0.164-0.558-0.021-0.082-0.153-0.114-0.153-0.032z"></path>
<path d="M22.62 23.776c0.011 0.533 0.014 0.562 0.082 0.562s0.071-0.028 0.082-0.562l0.011-0.558h-0.185l0.011 0.558z"></path>
<path d="M24.732 23.385c0.299 0.985 0.288 0.953 0.37 0.964 0.064 0.011 0.078 0 0.064-0.053-0.011-0.036-0.089-0.292-0.174-0.569-0.139-0.452-0.164-0.508-0.235-0.508-0.078 0-0.078 0.004-0.025 0.167z"></path>
<path d="M23.168 23.364c0.032 0.185 0.043 0.21 0.103 0.21 0.085 0 0.064-0.156-0.036-0.249l-0.089-0.085 0.021 0.124z"></path>
<path d="M9.518 23.396c-0.206 0.245-0.203 0.562 0.014 0.764l0.11 0.107-0.057-0.114c-0.078-0.156-0.078-0.64 0-0.75 0.089-0.128 0.036-0.132-0.068-0.007z"></path>
<path d="M10.297 23.47c0.082 0.164 0.156 0.228 0.156 0.135 0-0.064-0.139-0.27-0.192-0.292-0.036-0.014-0.025 0.036 0.036 0.156z"></path>
<path d="M14.62 23.346c-0.117 0.082-0.185 0.238-0.185 0.423 0 0.178 0.036 0.274 0.153 0.398 0.103 0.114 0.153 0.103 0.064-0.011-0.103-0.135-0.107-0.583-0.004-0.754 0.082-0.132 0.078-0.132-0.028-0.057z"></path>
<path d="M15.353 23.47c0.085 0.174 0.149 0.224 0.149 0.121 0-0.075-0.103-0.228-0.178-0.267-0.046-0.025-0.043 0.004 0.028 0.146z"></path>
<path d="M21.042 23.47c0.085 0.174 0.149 0.224 0.149 0.121 0-0.075-0.103-0.228-0.178-0.267-0.046-0.025-0.043 0.004 0.028 0.146z"></path>
<path d="M20.235 23.417c-0.171 0.217-0.164 0.508 0.021 0.725 0.103 0.124 0.156 0.121 0.068-0.007-0.075-0.107-0.078-0.562-0.004-0.704 0.068-0.132 0.014-0.139-0.085-0.014z"></path>
<path d="M24.64 24.825c0 0.085 0.203 0.085 0.309 0 0.082-0.060 0.078-0.060-0.114-0.060-0.164 0-0.196 0.011-0.196 0.060z"></path>
</symbol>
</defs>
</svg>
